<?xml version="1.0" encoding="UTF-8"?>
<svg xmlns="http://www.w3.org/2000/svg" xmlns:xlink="http://www.w3.org/1999/xlink" width="30px" height="30px" viewBox="0 0 30 30" version="1.1">
<g id="surface1">
<path style=" stroke:none;fill-rule:nonzero;fill:rgb(0%,0%,0%);fill-opacity:1;" d="M 14.800781 1.101562 L 14.800781 1.601562 L 14.648438 1.601562 C 14.503906 1.601562 14.5 1.605469 14.5 1.851562 C 14.5 2.085938 14.488281 2.101562 14.375 2.101562 L 14.25 2.101562 L 14.25 7.949219 L 13.625 7.949219 C 13.105469 7.949219 13 7.941406 13 7.875 C 13 7.816406 13.074219 7.800781 13.371094 7.800781 L 13.738281 7.800781 L 13.765625 7.585938 C 13.800781 7.324219 13.78125 4.914062 13.738281 4.875 C 13.730469 4.859375 13.351562 5.191406 12.910156 5.605469 L 12.101562 6.359375 L 12.101562 7.070312 L 11.824219 6.800781 L 11.550781 6.53125 L 11.550781 5.199219 C 11.550781 4.46875 11.53125 3.84375 11.511719 3.808594 C 11.476562 3.761719 11.273438 3.839844 10.683594 4.128906 L 9.898438 4.511719 L 9.898438 6.453125 C 9.898438 8.128906 9.890625 8.398438 9.824219 8.398438 C 9.769531 8.398438 9.75 8.300781 9.738281 7.886719 L 9.726562 7.375 L 9.214844 7.359375 L 8.699219 7.34375 L 8.699219 6.601562 L 8.351562 6.601562 L 8.351562 5.925781 C 8.351562 5.554688 8.335938 5.25 8.320312 5.25 C 8.304688 5.25 8.25 5.273438 8.195312 5.300781 C 8.109375 5.351562 8.101562 5.410156 8.101562 5.976562 L 8.101562 6.601562 L 7.804688 6.601562 L 7.789062 6.054688 L 7.773438 5.511719 L 7.398438 5.660156 L 7.410156 12.09375 L 7.425781 18.523438 L 7.589844 19 C 7.914062 19.941406 8.449219 20.910156 8.988281 21.558594 L 9.183594 21.789062 L 9.214844 21.109375 C 9.269531 19.988281 9.386719 19.226562 9.628906 18.433594 C 9.699219 18.210938 9.773438 17.90625 9.796875 17.765625 C 9.820312 17.589844 9.871094 17.460938 9.949219 17.371094 C 10.136719 17.175781 11 16.621094 11.304688 16.5 C 11.453125 16.441406 11.621094 16.335938 11.675781 16.269531 C 11.769531 16.148438 12.191406 16 12.429688 16 C 12.511719 16 12.601562 15.90625 12.75 15.660156 C 12.871094 15.476562 13.003906 15.265625 13.054688 15.191406 C 13.175781 15.019531 13.175781 14.941406 13.054688 14.710938 C 13.003906 14.609375 12.929688 14.425781 12.894531 14.300781 C 12.855469 14.15625 12.765625 14.019531 12.644531 13.910156 C 12.359375 13.664062 12.195312 13.28125 12.195312 12.890625 C 12.195312 12.71875 12.183594 12.414062 12.171875 12.214844 C 12.140625 11.835938 12.210938 11.636719 12.398438 11.574219 C 12.460938 11.554688 12.496094 11.476562 12.515625 11.289062 C 12.558594 10.929688 12.726562 10.453125 12.898438 10.195312 C 12.980469 10.074219 13.105469 9.890625 13.175781 9.789062 C 13.246094 9.683594 13.421875 9.53125 13.570312 9.449219 C 13.75 9.34375 13.859375 9.246094 13.90625 9.140625 C 14.015625 8.875 14.316406 8.773438 15.023438 8.773438 C 15.734375 8.773438 16.035156 8.875 16.144531 9.140625 C 16.191406 9.246094 16.300781 9.34375 16.480469 9.449219 C 16.625 9.53125 16.785156 9.660156 16.835938 9.734375 C 16.886719 9.816406 16.996094 9.964844 17.074219 10.078125 C 17.296875 10.363281 17.445312 10.746094 17.515625 11.175781 C 17.558594 11.460938 17.59375 11.554688 17.664062 11.578125 C 17.710938 11.59375 17.789062 11.660156 17.828125 11.726562 C 17.910156 11.84375 17.910156 11.84375 17.828125 12.835938 C 17.816406 12.980469 17.816406 13.101562 17.824219 13.101562 C 17.835938 13.101562 18.054688 13.03125 18.308594 12.941406 C 18.734375 12.796875 18.824219 12.78125 19.375 12.78125 C 20.078125 12.785156 20.460938 12.894531 20.75 13.175781 C 20.914062 13.335938 20.945312 13.34375 21.09375 13.300781 C 21.324219 13.234375 22 13.449219 22.144531 13.636719 C 22.324219 13.859375 22.253906 14.421875 21.964844 15.066406 C 21.824219 15.371094 21.664062 15.5 21.425781 15.5 C 21.179688 15.5 20.746094 15.34375 20.578125 15.195312 C 20.421875 15.054688 20.410156 15.054688 20.328125 15.144531 C 20.21875 15.265625 19.941406 16.101562 19.824219 16.636719 L 19.734375 17.050781 L 19.96875 17.300781 C 20.164062 17.511719 20.199219 17.574219 20.199219 17.75 C 20.199219 17.863281 20.234375 18.019531 20.273438 18.101562 C 20.5 18.535156 20.738281 19.894531 20.785156 20.988281 C 20.804688 21.46875 20.835938 21.699219 20.871094 21.683594 C 20.898438 21.675781 21.078125 21.46875 21.265625 21.21875 C 21.648438 20.714844 22.171875 19.710938 22.410156 19 L 22.574219 18.523438 L 22.589844 12.21875 L 22.601562 5.921875 L 22.425781 5.835938 C 22.324219 5.789062 22.234375 5.75 22.226562 5.75 C 22.210938 5.75 22.199219 5.929688 22.199219 6.148438 L 22.199219 6.550781 L 21.898438 6.550781 L 21.898438 6.054688 C 21.898438 5.558594 21.878906 5.5 21.695312 5.5 C 21.671875 5.5 21.648438 5.734375 21.648438 6.023438 C 21.648438 6.515625 21.644531 6.550781 21.550781 6.550781 C 21.453125 6.550781 21.449219 6.515625 21.449219 5.960938 L 21.449219 5.375 L 20.875 5.085938 C 20.558594 4.929688 20.289062 4.800781 20.273438 4.800781 C 20.261719 4.800781 20.25 5.664062 20.25 6.726562 C 20.25 8.40625 20.238281 8.648438 20.175781 8.648438 C 20.113281 8.648438 20.101562 8.578125 20.101562 8.324219 L 20.101562 8 L 19.601562 8 L 19.601562 7.335938 L 19.59375 6.675781 L 19.324219 6.453125 L 19.050781 6.238281 L 19.050781 5.269531 C 19.050781 4.449219 19.039062 4.300781 18.976562 4.300781 C 18.914062 4.300781 18.898438 4.445312 18.890625 5.199219 L 18.875 6.101562 L 18.574219 5.855469 L 18.273438 5.605469 L 18.261719 7.378906 L 18.25 9.148438 L 17.648438 9.148438 C 17.148438 9.148438 17.050781 9.136719 17.050781 9.074219 C 17.050781 9.015625 17.121094 9 17.375 9 L 17.699219 9 L 17.699219 5.898438 L 16.148438 5.898438 L 16.148438 6.648438 C 16.148438 7.285156 16.140625 7.398438 16.074219 7.398438 C 16.011719 7.398438 16 7.09375 16 4.949219 L 16 2.5 L 15.550781 2.5 L 15.550781 2.300781 C 15.550781 2.109375 15.539062 2.101562 15.398438 2.101562 C 15.253906 2.101562 15.25 2.09375 15.25 1.855469 C 15.25 1.621094 15.238281 1.605469 15.113281 1.589844 L 14.976562 1.574219 L 14.960938 1.085938 C 14.949219 0.699219 14.929688 0.601562 14.875 0.601562 C 14.816406 0.601562 14.800781 0.695312 14.800781 1.101562 Z M 14.800781 1.101562 "/>
<path style=" stroke:none;fill-rule:nonzero;fill:rgb(0%,0%,0%);fill-opacity:1;" d="M 10.648438 1.625 L 10.648438 2.25 L 10.511719 2.25 C 10.304688 2.25 10.199219 2.496094 10.199219 2.980469 C 10.199219 3.570312 10.179688 3.59375 9.21875 4.054688 C 8.769531 4.273438 8.390625 4.449219 8.375 4.449219 C 8.359375 4.449219 8.351562 4.394531 8.351562 4.324219 C 8.351562 4.253906 8.328125 4.199219 8.304688 4.199219 C 8.28125 4.199219 8.226562 4.183594 8.179688 4.171875 C 8.113281 4.144531 8.101562 4.179688 8.101562 4.371094 C 8.101562 4.546875 8.074219 4.609375 8.003906 4.648438 C 7.816406 4.75 7.800781 4.714844 7.800781 4.21875 L 7.800781 3.734375 L 7.601562 3.953125 C 7.410156 4.171875 7.40625 4.183594 7.398438 4.550781 L 7.398438 4.929688 L 6.96875 5.140625 C 6.539062 5.355469 6.425781 5.355469 6.804688 5.140625 C 7.09375 4.980469 7.050781 4.878906 6.675781 4.859375 C 6.429688 4.84375 6.320312 4.871094 6.085938 4.980469 L 5.796875 5.121094 L 5.808594 5.644531 L 5.824219 6.175781 L 6.125 6.191406 C 6.371094 6.199219 6.476562 6.179688 6.699219 6.066406 C 6.941406 5.945312 6.980469 5.898438 7 5.75 L 7.023438 5.578125 L 8.851562 4.695312 C 9.855469 4.203125 11.09375 3.605469 11.613281 3.355469 L 12.550781 2.90625 L 12.550781 3.199219 C 12.550781 3.410156 12.53125 3.496094 12.476562 3.519531 C 12.421875 3.539062 12.398438 3.625 12.398438 3.851562 C 12.398438 4.128906 12.40625 4.148438 12.515625 4.148438 C 12.589844 4.148438 12.65625 4.105469 12.691406 4.035156 C 12.734375 3.941406 12.746094 3.949219 12.746094 4.140625 C 12.75 4.320312 12.726562 4.386719 12.601562 4.5 C 12.425781 4.664062 12.410156 4.785156 12.554688 4.96875 C 12.683594 5.136719 12.910156 5.144531 13.019531 4.988281 C 13.140625 4.820312 13.113281 4.769531 12.976562 4.898438 C 12.871094 5 12.835938 5.011719 12.726562 4.960938 C 12.554688 4.878906 12.554688 4.679688 12.726562 4.570312 C 12.820312 4.511719 12.851562 4.445312 12.851562 4.320312 C 12.851562 4.175781 12.875 4.136719 13.023438 4.066406 C 13.195312 3.984375 13.199219 3.976562 13.199219 3.691406 C 13.199219 3.464844 13.183594 3.398438 13.125 3.398438 C 13.066406 3.398438 13.050781 3.324219 13.050781 3.023438 C 13.050781 2.734375 13.070312 2.640625 13.125 2.621094 C 13.238281 2.574219 13.214844 2.421875 13.078125 2.328125 C 12.960938 2.253906 12.925781 2.265625 12.125 2.648438 C 11.664062 2.871094 11.28125 3.050781 11.269531 3.050781 C 11.261719 3.050781 11.25 2.949219 11.25 2.824219 C 11.25 2.703125 11.210938 2.523438 11.164062 2.425781 C 11.101562 2.285156 11.054688 2.25 10.941406 2.25 L 10.800781 2.25 L 10.800781 1.625 C 10.800781 1.105469 10.789062 1 10.726562 1 C 10.660156 1 10.648438 1.105469 10.648438 1.625 Z M 10.648438 1.625 "/>
<path style=" stroke:none;fill-rule:nonzero;fill:rgb(0%,0%,0%);fill-opacity:1;" d="M 20.75 2.675781 L 20.75 3.101562 L 20.25 3.101562 L 20.25 3.554688 C 20.25 3.988281 20.246094 4.003906 20.144531 3.976562 C 20.089844 3.953125 19.375 3.613281 18.566406 3.21875 C 17.75 2.824219 17.058594 2.5 17.023438 2.5 C 16.945312 2.5 16.800781 2.664062 16.800781 2.761719 C 16.800781 2.804688 16.835938 2.851562 16.875 2.871094 C 16.929688 2.890625 16.949219 2.980469 16.949219 3.246094 C 16.949219 3.503906 16.929688 3.59375 16.875 3.621094 C 16.820312 3.640625 16.800781 3.726562 16.800781 3.941406 C 16.800781 4.226562 16.804688 4.234375 16.976562 4.316406 C 17.125 4.386719 17.148438 4.425781 17.148438 4.566406 C 17.148438 4.699219 17.179688 4.746094 17.28125 4.789062 C 17.386719 4.839844 17.40625 4.878906 17.390625 5.015625 C 17.375 5.15625 17.355469 5.175781 17.214844 5.191406 C 17.101562 5.199219 17.039062 5.175781 16.980469 5.089844 C 16.914062 5 16.898438 4.996094 16.898438 5.066406 C 16.898438 5.179688 17.078125 5.351562 17.199219 5.351562 C 17.335938 5.351562 17.550781 5.136719 17.550781 4.996094 C 17.550781 4.941406 17.480469 4.824219 17.394531 4.746094 C 17.265625 4.621094 17.246094 4.574219 17.265625 4.390625 C 17.28125 4.210938 17.289062 4.195312 17.320312 4.285156 C 17.351562 4.359375 17.398438 4.398438 17.480469 4.398438 C 17.59375 4.398438 17.601562 4.386719 17.601562 4.101562 C 17.601562 3.875 17.578125 3.789062 17.523438 3.769531 C 17.46875 3.746094 17.449219 3.660156 17.449219 3.441406 C 17.449219 3.273438 17.46875 3.148438 17.496094 3.160156 C 17.515625 3.164062 18.765625 3.769531 20.269531 4.5 L 23 5.824219 L 23 5.984375 C 23 6.128906 23.023438 6.160156 23.25 6.273438 C 23.445312 6.375 23.570312 6.398438 23.851562 6.398438 L 24.199219 6.398438 L 24.199219 5.351562 L 23.949219 5.226562 C 23.753906 5.125 23.628906 5.101562 23.351562 5.101562 C 22.929688 5.101562 22.890625 5.175781 23.199219 5.378906 C 23.308594 5.453125 23.398438 5.519531 23.398438 5.53125 C 23.398438 5.558594 23.121094 5.445312 22.875 5.308594 L 22.625 5.175781 L 22.609375 4.800781 C 22.59375 4.441406 22.585938 4.410156 22.398438 4.199219 L 22.203125 3.976562 L 22.199219 4.460938 C 22.199219 4.730469 22.191406 4.949219 22.175781 4.949219 C 22.164062 4.949219 22.09375 4.925781 22.023438 4.890625 C 21.921875 4.84375 21.898438 4.800781 21.898438 4.613281 C 21.898438 4.5 21.878906 4.398438 21.855469 4.398438 C 21.730469 4.398438 21.648438 4.476562 21.648438 4.585938 C 21.648438 4.679688 21.628906 4.703125 21.570312 4.679688 C 21.523438 4.664062 21.480469 4.648438 21.46875 4.648438 C 21.460938 4.648438 21.449219 4.300781 21.449219 3.878906 L 21.449219 3.105469 L 21.191406 3.089844 L 20.925781 3.074219 L 20.910156 2.660156 C 20.898438 2.339844 20.878906 2.25 20.824219 2.25 C 20.765625 2.25 20.75 2.335938 20.75 2.675781 Z M 20.75 2.675781 "/>
<path style=" stroke:none;fill-rule:nonzero;fill:rgb(0%,0%,0%);fill-opacity:1;" d="M 6.09375 7.683594 C 5.40625 8.386719 5.085938 8.761719 4.640625 9.398438 C 3.480469 11.074219 2.765625 12.921875 2.445312 15.074219 C 2.355469 15.675781 2.355469 17.726562 2.445312 18.324219 C 2.875 21.226562 4.015625 23.570312 5.96875 25.589844 C 7.964844 27.648438 10.679688 28.988281 13.53125 29.324219 C 17.265625 29.761719 21.039062 28.488281 23.746094 25.875 C 25.851562 23.84375 27.140625 21.28125 27.558594 18.300781 C 27.65625 17.613281 27.640625 15.628906 27.535156 14.933594 C 27.183594 12.660156 26.390625 10.761719 25.03125 8.949219 C 24.679688 8.484375 23.429688 7.148438 23.34375 7.148438 C 23.320312 7.148438 23.300781 7.285156 23.300781 7.453125 L 23.300781 7.761719 L 23.78125 8.265625 C 25.523438 10.101562 26.640625 12.390625 27.035156 14.949219 C 27.160156 15.761719 27.160156 17.644531 27.035156 18.449219 C 26.695312 20.605469 25.945312 22.394531 24.660156 24.101562 C 24.164062 24.75 23.171875 25.78125 22.574219 26.25 C 20.730469 27.703125 18.660156 28.566406 16.371094 28.828125 C 15.53125 28.929688 13.945312 28.90625 13.175781 28.78125 C 7.21875 27.828125 2.851562 22.71875 2.851562 16.699219 C 2.851562 13.546875 4.050781 10.550781 6.230469 8.253906 L 6.703125 7.753906 L 6.691406 7.425781 L 6.675781 7.101562 Z M 6.09375 7.683594 "/>
<path style=" stroke:none;fill-rule:nonzero;fill:rgb(0%,0%,0%);fill-opacity:1;" d="M 14.476562 9.21875 C 14.324219 9.265625 14.273438 9.304688 14.285156 9.375 C 14.289062 9.429688 14.320312 9.765625 14.351562 10.125 C 14.378906 10.480469 14.414062 10.855469 14.425781 10.949219 C 14.480469 11.308594 14.363281 10.964844 14.226562 10.335938 C 14.074219 9.660156 14.058594 9.640625 13.808594 9.773438 C 13.535156 9.925781 13.535156 9.914062 13.648438 10.203125 L 13.75 10.476562 L 13.601562 10.300781 L 13.449219 10.125 L 13.339844 10.25 C 13.101562 10.535156 12.828125 11.390625 12.910156 11.605469 C 12.929688 11.648438 13.085938 11.703125 13.328125 11.75 L 13.726562 11.824219 L 13.191406 11.851562 C 12.894531 11.863281 12.628906 11.898438 12.601562 11.929688 C 12.570312 11.960938 12.550781 12.074219 12.558594 12.179688 C 12.574219 12.371094 12.578125 12.375 12.789062 12.390625 C 12.976562 12.40625 13 12.421875 13 12.53125 C 13 12.628906 12.976562 12.648438 12.859375 12.648438 C 12.785156 12.648438 12.695312 12.675781 12.660156 12.710938 C 12.503906 12.863281 12.683594 13.46875 12.941406 13.640625 C 13.046875 13.710938 13.050781 13.703125 13.050781 13.53125 C 13.050781 13.210938 13.128906 13.339844 13.191406 13.761719 C 13.230469 14.035156 13.304688 14.285156 13.410156 14.503906 C 13.546875 14.769531 13.570312 14.886719 13.558594 15.089844 C 13.550781 15.285156 13.523438 15.351562 13.453125 15.375 C 13.40625 15.390625 13.339844 15.460938 13.304688 15.53125 C 13.273438 15.601562 13.164062 15.785156 13.058594 15.941406 C 12.878906 16.214844 12.871094 16.246094 12.890625 16.558594 C 12.898438 16.746094 12.878906 17.089844 12.84375 17.335938 L 12.78125 17.773438 L 12.746094 17.476562 C 12.726562 17.308594 12.695312 17 12.675781 16.785156 C 12.636719 16.355469 12.636719 16.351562 12.230469 16.453125 C 12.085938 16.488281 11.996094 16.546875 11.960938 16.621094 C 11.925781 16.695312 11.820312 16.761719 11.605469 16.824219 C 11.320312 16.910156 10.304688 17.519531 10.21875 17.65625 C 10.203125 17.683594 10.214844 17.761719 10.25 17.824219 C 10.300781 17.921875 10.296875 17.960938 10.203125 18.078125 C 9.90625 18.5 9.601562 20.304688 9.601562 21.710938 L 9.601562 22.238281 L 9.886719 22.488281 C 10.890625 23.355469 12.113281 23.96875 13.414062 24.253906 C 14.011719 24.386719 15.34375 24.433594 15.976562 24.355469 C 17.503906 24.148438 18.941406 23.503906 20.121094 22.484375 L 20.398438 22.246094 L 20.398438 21.601562 C 20.398438 20.203125 20.089844 18.390625 19.796875 18.070312 C 19.710938 17.980469 19.703125 17.945312 19.753906 17.828125 C 19.808594 17.710938 19.804688 17.679688 19.691406 17.566406 C 19.554688 17.429688 19.449219 17.445312 19.449219 17.601562 C 19.449219 17.773438 19.039062 19.320312 18.871094 19.789062 C 18.773438 20.050781 18.699219 20.28125 18.699219 20.300781 C 18.699219 20.320312 18.753906 20.355469 18.824219 20.371094 C 18.921875 20.394531 18.949219 20.433594 18.949219 20.539062 C 18.949219 20.710938 18.871094 20.800781 18.714844 20.800781 C 18.640625 20.800781 18.578125 20.84375 18.539062 20.925781 C 18.5 21.015625 18.453125 21.046875 18.40625 21.019531 C 18.359375 21.003906 18.089844 20.960938 17.800781 20.925781 C 17.214844 20.851562 16.394531 20.679688 16.261719 20.605469 C 16.160156 20.546875 16.15625 20.550781 16.726562 20.386719 L 17.125 20.269531 L 17.308594 19.570312 C 17.515625 18.785156 17.664062 18.320312 17.929688 17.644531 C 18.085938 17.25 18.109375 17.144531 18.089844 16.886719 C 18.066406 16.53125 18.003906 16.46875 17.609375 16.421875 C 17.273438 16.378906 17.105469 16.230469 16.824219 15.730469 C 16.71875 15.539062 16.59375 15.375 16.550781 15.363281 C 16.5 15.351562 16.441406 15.296875 16.410156 15.234375 C 16.363281 15.136719 16.355469 15.144531 16.355469 15.320312 C 16.351562 15.445312 16.273438 15.648438 16.140625 15.910156 C 15.925781 16.316406 15.441406 16.949219 15.351562 16.949219 C 15.320312 16.949219 15.410156 16.773438 15.539062 16.558594 C 15.675781 16.351562 15.800781 16.140625 15.824219 16.101562 C 15.851562 16.058594 15.78125 16.09375 15.675781 16.179688 C 15.566406 16.265625 15.398438 16.375 15.316406 16.421875 C 15.160156 16.5 15.148438 16.5 15.148438 16.414062 C 15.15625 16.363281 15.183594 16.269531 15.226562 16.199219 C 15.265625 16.128906 15.296875 15.980469 15.300781 15.871094 C 15.300781 15.671875 15.304688 15.660156 15.488281 15.628906 C 15.71875 15.59375 16.015625 15.355469 16.328125 14.945312 C 16.601562 14.59375 16.738281 14.296875 16.78125 13.976562 C 16.808594 13.773438 16.835938 13.734375 16.976562 13.679688 C 17.199219 13.585938 17.359375 13.335938 17.390625 13.046875 C 17.414062 12.753906 17.351562 12.648438 17.144531 12.648438 C 16.996094 12.648438 16.976562 12.621094 17.03125 12.480469 C 17.050781 12.425781 17.125 12.398438 17.28125 12.398438 L 17.5 12.398438 L 17.5 12.175781 C 17.5 11.886719 17.429688 11.851562 16.820312 11.851562 C 16.550781 11.851562 16.34375 11.839844 16.359375 11.824219 C 16.371094 11.808594 16.515625 11.773438 16.679688 11.746094 C 17.144531 11.664062 17.148438 11.660156 17.148438 11.480469 C 17.148438 11.113281 16.863281 10.355469 16.660156 10.191406 C 16.605469 10.140625 16.558594 10.160156 16.445312 10.300781 L 16.300781 10.476562 L 16.398438 10.203125 C 16.515625 9.90625 16.523438 9.925781 16.183594 9.746094 C 16.046875 9.671875 15.996094 9.664062 15.976562 9.710938 C 15.964844 9.746094 15.894531 10.046875 15.820312 10.375 C 15.75 10.703125 15.664062 11.011719 15.644531 11.050781 C 15.609375 11.105469 15.605469 11.089844 15.621094 11 C 15.640625 10.894531 15.730469 9.949219 15.765625 9.425781 C 15.773438 9.296875 15.753906 9.273438 15.574219 9.21875 C 15.320312 9.140625 14.730469 9.140625 14.476562 9.21875 Z M 15.539062 12.496094 L 15.375 12.648438 L 15.539062 12.800781 C 15.738281 12.984375 15.910156 12.988281 16.164062 12.816406 C 16.359375 12.679688 16.359375 12.679688 16.253906 12.59375 C 16.125 12.488281 16.121094 12.449219 16.238281 12.480469 C 16.285156 12.496094 16.375 12.578125 16.441406 12.671875 C 16.660156 12.988281 16.558594 13.984375 16.269531 14.390625 C 16.175781 14.519531 16.054688 14.703125 16.003906 14.804688 C 15.949219 14.90625 15.835938 15.046875 15.75 15.113281 C 15.605469 15.238281 15.566406 15.246094 15.109375 15.238281 C 14.578125 15.234375 14.476562 15.203125 14.433594 15.050781 C 14.390625 14.878906 14.523438 14.800781 14.855469 14.800781 C 15.140625 14.800781 15.15625 14.796875 15.140625 14.683594 C 15.125 14.589844 15.09375 14.574219 14.890625 14.574219 C 14.765625 14.574219 14.644531 14.558594 14.625 14.546875 C 14.546875 14.460938 14.78125 14.40625 15.238281 14.394531 C 15.683594 14.390625 15.753906 14.375 15.738281 14.304688 C 15.71875 14.21875 15.671875 14.210938 15.011719 14.195312 C 14.570312 14.183594 14.511719 14.136719 14.78125 14.003906 C 14.859375 13.964844 14.964844 13.914062 15.011719 13.890625 C 15.058594 13.871094 15.144531 13.851562 15.195312 13.851562 C 15.300781 13.851562 15.378906 13.765625 15.328125 13.710938 C 15.308594 13.695312 15.25 13.703125 15.199219 13.738281 C 15.144531 13.773438 15.070312 13.800781 15.035156 13.800781 C 14.933594 13.800781 14.648438 13.648438 14.648438 13.601562 C 14.648438 13.574219 14.71875 13.5 14.808594 13.429688 C 14.960938 13.316406 14.976562 13.28125 14.988281 12.953125 C 15.011719 12.613281 15.011719 12.605469 14.863281 12.535156 C 14.785156 12.488281 14.628906 12.441406 14.523438 12.414062 C 14.363281 12.386719 14.46875 12.371094 15 12.351562 C 15.371094 12.335938 15.683594 12.328125 15.691406 12.335938 C 15.699219 12.339844 15.636719 12.410156 15.539062 12.496094 Z M 13.683594 15.710938 C 13.746094 15.773438 13.839844 15.929688 13.894531 16.054688 C 13.953125 16.179688 14.179688 16.488281 14.398438 16.75 C 14.621094 17.003906 14.789062 17.226562 14.78125 17.234375 C 14.769531 17.246094 14.601562 17.15625 14.40625 17.03125 C 14.210938 16.90625 14.035156 16.800781 14.015625 16.800781 C 13.996094 16.800781 13.90625 16.875 13.816406 16.960938 L 13.644531 17.125 L 13.730469 16.890625 C 13.808594 16.675781 13.808594 16.636719 13.738281 16.390625 C 13.699219 16.246094 13.613281 16.003906 13.558594 15.859375 C 13.441406 15.574219 13.496094 15.503906 13.683594 15.710938 Z M 16.824219 16.171875 C 17.195312 16.738281 17.203125 16.773438 17.140625 17.25 C 17.105469 17.46875 17.066406 17.648438 17.050781 17.648438 C 17.035156 17.648438 16.980469 17.578125 16.925781 17.496094 C 16.789062 17.289062 16.269531 16.878906 16.066406 16.820312 C 16.054688 16.820312 16.09375 16.730469 16.148438 16.621094 C 16.203125 16.515625 16.300781 16.273438 16.359375 16.085938 C 16.421875 15.898438 16.488281 15.75 16.511719 15.75 C 16.535156 15.75 16.675781 15.941406 16.824219 16.171875 Z M 15.75 18.101562 C 15.585938 18.898438 15.613281 18.925781 15.949219 18.253906 C 16.144531 17.863281 16.28125 17.648438 16.335938 17.648438 C 16.375 17.648438 16.574219 17.738281 16.773438 17.851562 C 16.976562 17.960938 17.175781 18.050781 17.21875 18.050781 C 17.28125 18.050781 17.300781 18.101562 17.300781 18.269531 C 17.300781 18.394531 17.28125 18.511719 17.25 18.523438 C 17.191406 18.558594 17.183594 18.898438 17.246094 18.988281 C 17.269531 19.035156 17.234375 19.179688 17.15625 19.378906 L 17.023438 19.699219 L 15.5 19.695312 C 14.660156 19.695312 13.875 19.675781 13.75 19.65625 C 13.550781 19.625 13.59375 19.609375 14.199219 19.535156 C 15.230469 19.398438 15.125 19.449219 15.226562 19.035156 C 15.273438 18.835938 15.371094 18.53125 15.433594 18.351562 C 15.554688 18.019531 15.796875 17.574219 15.828125 17.609375 C 15.839844 17.621094 15.800781 17.839844 15.75 18.101562 Z M 11.566406 19.058594 C 11.695312 19.21875 11.710938 19.285156 11.761719 19.894531 C 11.789062 20.253906 11.804688 20.558594 11.796875 20.570312 C 11.785156 20.578125 11.429688 20.605469 11.011719 20.625 L 10.246094 20.664062 L 10.261719 20.46875 L 10.273438 20.273438 L 11.523438 20.226562 L 11.320312 20.140625 C 11.203125 20.09375 10.96875 20.019531 10.796875 19.976562 C 10.304688 19.855469 10.320312 19.863281 10.445312 19.730469 C 10.515625 19.65625 10.554688 19.550781 10.554688 19.445312 C 10.554688 19.234375 10.644531 18.828125 10.734375 18.609375 L 10.804688 18.445312 L 11.113281 18.664062 C 11.285156 18.789062 11.484375 18.964844 11.566406 19.058594 Z M 13.914062 20.328125 C 15.230469 20.59375 16.726562 21.023438 17.035156 21.226562 C 17.09375 21.269531 17.148438 21.34375 17.148438 21.394531 C 17.148438 21.449219 17.214844 21.683594 17.296875 21.921875 C 17.375 22.15625 17.421875 22.351562 17.398438 22.351562 C 17.375 22.351562 17.070312 22.25 16.726562 22.128906 C 16.378906 22.003906 16.101562 21.914062 16.101562 21.925781 C 16.101562 21.933594 16.359375 22.105469 16.675781 22.300781 C 16.988281 22.5 17.25 22.671875 17.25 22.679688 C 17.25 22.703125 16.578125 22.449219 14.964844 21.804688 C 14.820312 21.75 14.699219 21.710938 14.699219 21.726562 C 14.699219 21.75 16.171875 22.660156 16.789062 23.019531 C 17.015625 23.148438 17.199219 23.265625 17.199219 23.273438 C 17.199219 23.363281 14.261719 21.925781 13.800781 21.609375 C 13.484375 21.394531 13.40625 21.355469 13.148438 21.273438 L 13.023438 21.238281 L 13.144531 21.371094 L 13.265625 21.5 L 12.785156 21.511719 C 12.519531 21.515625 12.25 21.519531 12.191406 21.519531 C 12.078125 21.523438 12.074219 21.511719 12.085938 21.109375 C 12.101562 20.605469 12.179688 20.46875 12.566406 20.273438 C 12.859375 20.125 12.921875 20.128906 13.914062 20.328125 Z M 11.648438 20.914062 C 11.648438 20.925781 11.546875 21.011719 11.421875 21.105469 C 11.296875 21.199219 11.171875 21.308594 11.144531 21.355469 C 11.109375 21.425781 11.15625 21.414062 11.421875 21.320312 C 11.761719 21.199219 11.800781 21.203125 11.800781 21.375 C 11.800781 21.460938 11.738281 21.5 11.515625 21.574219 C 11.355469 21.628906 11.03125 21.796875 10.789062 21.933594 C 10.550781 22.078125 10.328125 22.199219 10.300781 22.199219 C 10.269531 22.199219 10.25 22.058594 10.25 21.871094 C 10.25 21.621094 10.269531 21.519531 10.328125 21.476562 C 10.40625 21.421875 10.40625 21.40625 10.335938 21.296875 C 10.289062 21.226562 10.265625 21.125 10.28125 21.066406 C 10.308594 20.960938 10.335938 20.953125 10.59375 20.980469 C 10.808594 21 11.558594 20.945312 11.640625 20.90625 C 11.644531 20.90625 11.648438 20.90625 11.648438 20.914062 Z M 14.019531 22.214844 C 14.269531 22.355469 14.535156 22.53125 14.613281 22.601562 L 14.765625 22.734375 L 14.019531 22.996094 C 13.609375 23.140625 13.011719 23.335938 12.691406 23.433594 C 12.144531 23.601562 12.089844 23.605469 11.984375 23.535156 C 11.914062 23.488281 11.839844 23.363281 11.800781 23.230469 C 11.738281 23.011719 11.746094 23 11.929688 22.691406 C 12.226562 22.195312 12.21875 22.195312 12.25 22.503906 L 12.273438 22.773438 L 12.519531 22.335938 L 12.765625 21.890625 L 13.171875 21.925781 C 13.535156 21.953125 13.621094 21.984375 14.019531 22.214844 Z M 14.019531 22.214844 "/>
<path style=" stroke:none;fill-rule:nonzero;fill:rgb(0%,0%,0%);fill-opacity:1;" d="M 5.066406 10.261719 C 4.921875 10.449219 4.914062 10.449219 5.894531 10.449219 L 6.851562 10.449219 L 6.851562 10.199219 L 5.980469 10.199219 C 5.34375 10.199219 5.101562 10.214844 5.066406 10.261719 Z M 5.066406 10.261719 "/>
<path style=" stroke:none;fill-rule:nonzero;fill:rgb(0%,0%,0%);fill-opacity:1;" d="M 23.148438 10.324219 L 23.148438 10.449219 L 25.058594 10.449219 L 24.988281 10.335938 C 24.914062 10.230469 24.886719 10.226562 24.03125 10.210938 L 23.148438 10.199219 Z M 23.148438 10.324219 "/>
<path style=" stroke:none;fill-rule:nonzero;fill:rgb(0%,0%,0%);fill-opacity:1;" d="M 4.601562 11.046875 C 4.574219 11.101562 4.550781 11.15625 4.550781 11.171875 C 4.550781 11.183594 5.070312 11.199219 5.699219 11.199219 L 6.851562 11.199219 L 6.851562 10.949219 L 5.75 10.949219 C 4.714844 10.949219 4.648438 10.953125 4.601562 11.046875 Z M 4.601562 11.046875 "/>
<path style=" stroke:none;fill-rule:nonzero;fill:rgb(0%,0%,0%);fill-opacity:1;" d="M 23.183594 10.984375 C 23.164062 11 23.148438 11.058594 23.148438 11.109375 C 23.148438 11.195312 23.21875 11.199219 24.300781 11.199219 C 24.933594 11.199219 25.449219 11.183594 25.449219 11.171875 C 25.449219 11.15625 25.425781 11.101562 25.398438 11.046875 C 25.351562 10.953125 25.285156 10.949219 24.28125 10.949219 C 23.695312 10.949219 23.199219 10.964844 23.183594 10.984375 Z M 23.183594 10.984375 "/>
<path style=" stroke:none;fill-rule:nonzero;fill:rgb(0%,0%,0%);fill-opacity:1;" d="M 4.199219 11.84375 C 4.175781 11.898438 4.148438 11.953125 4.148438 11.96875 C 4.148438 11.984375 4.761719 12 5.5 12 L 6.851562 12 L 6.851562 11.75 L 5.550781 11.75 C 4.320312 11.75 4.25 11.753906 4.199219 11.84375 Z M 4.199219 11.84375 "/>
<path style=" stroke:none;fill-rule:nonzero;fill:rgb(0%,0%,0%);fill-opacity:1;" d="M 23.148438 11.875 L 23.148438 12 L 24.5 12 C 25.246094 12 25.851562 11.984375 25.851562 11.96875 C 25.851562 11.953125 25.824219 11.898438 25.800781 11.84375 C 25.75 11.753906 25.679688 11.75 24.449219 11.75 L 23.148438 11.75 Z M 23.148438 11.875 "/>
<path style=" stroke:none;fill-rule:nonzero;fill:rgb(0%,0%,0%);fill-opacity:1;" d="M 3.878906 12.628906 C 3.863281 12.675781 3.851562 12.730469 3.851562 12.753906 C 3.851562 12.785156 4.429688 12.796875 5.304688 12.789062 L 6.765625 12.773438 L 6.804688 12.660156 L 6.84375 12.550781 L 5.378906 12.550781 C 4.085938 12.550781 3.90625 12.558594 3.878906 12.628906 Z M 3.878906 12.628906 "/>
<path style=" stroke:none;fill-rule:nonzero;fill:rgb(0%,0%,0%);fill-opacity:1;" d="M 23.195312 12.660156 L 23.234375 12.773438 L 24.695312 12.789062 C 25.570312 12.796875 26.148438 12.785156 26.148438 12.753906 C 26.148438 12.550781 26.15625 12.550781 24.621094 12.550781 L 23.15625 12.550781 Z M 23.195312 12.660156 "/>
<path style=" stroke:none;fill-rule:nonzero;fill:rgb(0%,0%,0%);fill-opacity:1;" d="M 19.023438 13.183594 C 18.476562 13.261719 17.644531 13.613281 17.398438 13.875 C 17.253906 14.03125 17.304688 14.03125 17.796875 13.890625 C 18.015625 13.828125 18.328125 13.78125 18.535156 13.78125 C 18.863281 13.773438 18.910156 13.785156 19.035156 13.910156 C 19.160156 14.039062 19.171875 14.074219 19.171875 14.460938 C 19.164062 15.011719 18.964844 15.710938 18.425781 17.050781 C 18.199219 17.613281 17.929688 18.320312 17.835938 18.625 C 17.621094 19.296875 17.386719 20.203125 17.421875 20.234375 C 17.5 20.320312 17.601562 20.15625 17.695312 19.773438 C 17.914062 18.894531 18.441406 17.445312 18.484375 17.578125 C 18.496094 17.609375 18.40625 17.980469 18.28125 18.40625 C 18.039062 19.25 17.820312 20.183594 17.855469 20.21875 C 17.863281 20.230469 18 20.253906 18.160156 20.273438 L 18.441406 20.308594 L 18.664062 19.621094 C 18.941406 18.78125 19.039062 18.390625 19.28125 17.25 C 19.460938 16.363281 19.746094 15.355469 19.878906 15.09375 L 19.949219 14.953125 L 19.675781 14.875 C 19.523438 14.828125 19.398438 14.773438 19.398438 14.75 C 19.398438 14.65625 19.511719 14.648438 19.769531 14.730469 L 20.046875 14.816406 L 20.195312 14.65625 C 20.320312 14.523438 20.363281 14.5 20.484375 14.53125 C 20.683594 14.578125 20.699219 14.59375 20.78125 14.78125 C 20.839844 14.921875 20.894531 14.960938 21.109375 15.023438 C 21.25 15.066406 21.394531 15.101562 21.433594 15.101562 C 21.519531 15.101562 21.621094 14.894531 21.746094 14.445312 C 21.90625 13.878906 21.898438 13.863281 21.566406 13.769531 C 21.324219 13.699219 21.253906 13.695312 21.125 13.75 C 21.046875 13.785156 20.914062 13.816406 20.839844 13.816406 C 20.734375 13.816406 20.695312 13.84375 20.660156 13.945312 C 20.621094 14.058594 20.613281 14.039062 20.585938 13.800781 C 20.546875 13.449219 20.421875 13.335938 19.953125 13.230469 C 19.621094 13.15625 19.351562 13.140625 19.023438 13.183594 Z M 19.023438 13.183594 "/>
<path style=" stroke:none;fill-rule:nonzero;fill:rgb(0%,0%,0%);fill-opacity:1;" d="M 3.648438 13.34375 C 3.648438 13.371094 3.636719 13.425781 3.621094 13.46875 C 3.589844 13.539062 3.734375 13.550781 5.015625 13.550781 C 6.5 13.550781 6.5 13.550781 6.5 13.34375 C 6.5 13.320312 5.90625 13.300781 5.074219 13.300781 C 4.246094 13.300781 3.648438 13.320312 3.648438 13.34375 Z M 3.648438 13.34375 "/>
<path style=" stroke:none;fill-rule:nonzero;fill:rgb(0%,0%,0%);fill-opacity:1;" d="M 23.519531 13.378906 C 23.535156 13.425781 23.550781 13.480469 23.550781 13.503906 C 23.550781 13.53125 24.144531 13.550781 24.980469 13.550781 C 26.265625 13.550781 26.410156 13.539062 26.378906 13.46875 C 26.363281 13.425781 26.351562 13.371094 26.351562 13.34375 C 26.351562 13.320312 25.753906 13.300781 24.921875 13.300781 C 23.636719 13.300781 23.488281 13.308594 23.519531 13.378906 Z M 23.519531 13.378906 "/>
<path style=" stroke:none;fill-rule:nonzero;fill:rgb(0%,0%,0%);fill-opacity:1;" d="M 6.609375 14.050781 C 5.296875 18.300781 7.269531 22.808594 11.273438 24.703125 C 15.011719 26.46875 19.484375 25.359375 21.996094 22.050781 C 23.75 19.738281 24.28125 16.574219 23.351562 13.945312 L 23.199219 13.523438 L 23.226562 14.675781 C 23.238281 15.304688 23.265625 16.113281 23.28125 16.464844 C 23.429688 19.65625 21.566406 22.761719 18.628906 24.195312 C 15.460938 25.75 11.683594 25.121094 9.171875 22.625 C 7.355469 20.820312 6.515625 18.445312 6.746094 15.785156 C 6.78125 15.394531 6.800781 14.726562 6.789062 14.300781 L 6.773438 13.523438 Z M 6.609375 14.050781 "/>
<path style=" stroke:none;fill-rule:nonzero;fill:rgb(0%,0%,0%);fill-opacity:1;" d="M 3.449219 14.144531 C 3.449219 14.171875 3.433594 14.226562 3.421875 14.269531 C 3.390625 14.339844 3.535156 14.351562 4.796875 14.351562 C 5.613281 14.351562 6.199219 14.328125 6.199219 14.304688 C 6.199219 14.28125 6.214844 14.226562 6.230469 14.179688 C 6.261719 14.109375 6.113281 14.101562 4.855469 14.101562 C 4.035156 14.101562 3.449219 14.121094 3.449219 14.144531 Z M 3.449219 14.144531 "/>
<path style=" stroke:none;fill-rule:nonzero;fill:rgb(0%,0%,0%);fill-opacity:1;" d="M 23.769531 14.179688 C 23.785156 14.226562 23.800781 14.28125 23.800781 14.304688 C 23.800781 14.328125 24.386719 14.351562 25.203125 14.351562 C 26.464844 14.351562 26.609375 14.339844 26.578125 14.269531 C 26.566406 14.226562 26.550781 14.171875 26.550781 14.144531 C 26.550781 14.121094 25.964844 14.101562 25.144531 14.101562 C 23.886719 14.101562 23.738281 14.109375 23.769531 14.179688 Z M 23.769531 14.179688 "/>
<path style=" stroke:none;fill-rule:nonzero;fill:rgb(0%,0%,0%);fill-opacity:1;" d="M 17.949219 14.328125 C 17.769531 14.363281 17.558594 14.421875 17.480469 14.449219 C 17.398438 14.476562 17.285156 14.5 17.226562 14.5 C 17.136719 14.5 17.101562 14.550781 17.03125 14.789062 L 16.941406 15.078125 L 17.140625 15.40625 C 17.488281 15.960938 17.484375 15.960938 17.929688 16.023438 C 18.226562 16.074219 18.335938 16.074219 18.363281 16.03125 C 18.464844 15.878906 18.710938 14.984375 18.730469 14.691406 C 18.75 14.394531 18.746094 14.351562 18.65625 14.304688 C 18.53125 14.234375 18.355469 14.238281 17.949219 14.328125 Z M 17.949219 14.328125 "/>
<path style=" stroke:none;fill-rule:nonzero;fill:rgb(0%,0%,0%);fill-opacity:1;" d="M 3.300781 14.976562 L 3.300781 15.101562 L 4.664062 15.089844 L 6.023438 15.074219 L 6.039062 14.960938 L 6.054688 14.851562 L 3.300781 14.851562 Z M 3.300781 14.976562 "/>
<path style=" stroke:none;fill-rule:nonzero;fill:rgb(0%,0%,0%);fill-opacity:1;" d="M 23.960938 14.960938 L 23.976562 15.074219 L 25.339844 15.089844 L 26.699219 15.101562 L 26.699219 14.851562 L 23.945312 14.851562 Z M 23.960938 14.960938 "/>
<path style=" stroke:none;fill-rule:nonzero;fill:rgb(0%,0%,0%);fill-opacity:1;" d="M 5.25 16.28125 L 5.25 16.714844 L 5.515625 16.683594 C 5.929688 16.636719 6.09375 16.378906 5.925781 16.054688 C 5.839844 15.886719 5.761719 15.851562 5.46875 15.851562 L 5.25 15.851562 Z M 5.25 16.28125 "/>
<path style=" stroke:none;fill-rule:nonzero;fill:rgb(0%,0%,0%);fill-opacity:1;" d="M 4.203125 17.769531 C 3.941406 18.050781 4.128906 18.5 4.511719 18.5 C 4.894531 18.5 5.085938 18.085938 4.84375 17.78125 C 4.703125 17.601562 4.371094 17.59375 4.203125 17.769531 Z M 4.203125 17.769531 "/>
<path style=" stroke:none;fill-rule:nonzero;fill:rgb(0%,0%,0%);fill-opacity:1;" d="M 25.175781 17.773438 C 24.894531 18.050781 25.09375 18.5 25.488281 18.5 C 25.75 18.5 25.898438 18.339844 25.898438 18.070312 C 25.898438 17.925781 25.871094 17.835938 25.785156 17.761719 C 25.621094 17.605469 25.335938 17.609375 25.175781 17.773438 Z M 25.175781 17.773438 "/>
<path style=" stroke:none;fill-rule:nonzero;fill:rgb(0%,0%,0%);fill-opacity:1;" d="M 23.960938 19.796875 L 23.859375 20.039062 L 24.289062 20.214844 C 24.53125 20.316406 24.78125 20.410156 24.851562 20.429688 C 24.980469 20.46875 24.960938 20.476562 23.898438 20.648438 C 23.550781 20.710938 23.558594 20.699219 23.375 21.203125 C 23.351562 21.269531 23.519531 21.359375 24.261719 21.675781 C 24.765625 21.890625 25.214844 22.085938 25.265625 22.109375 C 25.335938 22.144531 25.371094 22.113281 25.449219 21.925781 C 25.503906 21.796875 25.539062 21.675781 25.523438 21.65625 C 25.515625 21.636719 25.230469 21.503906 24.894531 21.371094 C 24.359375 21.15625 24.304688 21.125 24.453125 21.109375 C 24.640625 21.09375 25.546875 20.964844 25.753906 20.921875 C 25.855469 20.898438 25.914062 20.835938 25.988281 20.65625 L 26.089844 20.410156 L 25.113281 19.996094 C 24.574219 19.765625 24.121094 19.570312 24.101562 19.558594 C 24.078125 19.554688 24.019531 19.660156 23.960938 19.796875 Z M 23.960938 19.796875 "/>
<path style=" stroke:none;fill-rule:nonzero;fill:rgb(0%,0%,0%);fill-opacity:1;" d="M 5.109375 19.824219 C 4.765625 19.921875 4.609375 20.003906 4.414062 20.210938 C 4.21875 20.410156 4.148438 20.589844 4.148438 20.863281 C 4.15625 21.421875 4.660156 21.910156 5.148438 21.824219 L 5.339844 21.796875 L 5.253906 21.535156 C 5.171875 21.296875 5.148438 21.273438 4.976562 21.246094 C 4.789062 21.214844 4.648438 21.09375 4.648438 20.96875 C 4.648438 20.835938 4.910156 20.609375 5.175781 20.511719 C 5.519531 20.375 5.710938 20.371094 5.816406 20.488281 C 5.941406 20.625 5.921875 20.773438 5.753906 20.910156 L 5.613281 21.03125 L 5.738281 21.28125 C 5.804688 21.414062 5.871094 21.535156 5.878906 21.546875 C 5.921875 21.589844 6.246094 21.289062 6.320312 21.136719 C 6.511719 20.726562 6.296875 20.078125 5.898438 19.875 C 5.691406 19.769531 5.390625 19.75 5.109375 19.824219 Z M 5.109375 19.824219 "/>
<path style=" stroke:none;fill-rule:nonzero;fill:rgb(0%,0%,0%);fill-opacity:1;" d="M 6.101562 21.90625 C 5.84375 22.019531 5.53125 22.304688 5.414062 22.523438 C 5.28125 22.773438 5.304688 23.183594 5.464844 23.464844 C 5.886719 24.179688 6.816406 24.160156 7.378906 23.421875 C 7.570312 23.171875 7.609375 22.710938 7.460938 22.421875 C 7.175781 21.859375 6.644531 21.660156 6.101562 21.90625 Z M 6.878906 22.441406 C 6.910156 22.460938 6.960938 22.523438 6.996094 22.585938 C 7.070312 22.730469 7.019531 22.824219 6.753906 23.066406 C 6.363281 23.421875 6.066406 23.496094 5.921875 23.273438 C 5.851562 23.171875 5.851562 23.125 5.898438 23 C 6.035156 22.679688 6.683594 22.304688 6.878906 22.441406 Z M 6.878906 22.441406 "/>
<path style=" stroke:none;fill-rule:nonzero;fill:rgb(0%,0%,0%);fill-opacity:1;" d="M 23.15625 21.960938 C 22.523438 22.070312 22.164062 22.835938 22.453125 23.433594 C 22.640625 23.816406 23.160156 24.148438 23.570312 24.148438 C 23.808594 24.148438 24.21875 23.925781 24.363281 23.710938 C 24.730469 23.183594 24.574219 22.523438 24.011719 22.148438 C 23.886719 22.070312 23.769531 22 23.753906 22 C 23.738281 22 23.644531 21.980469 23.550781 21.960938 C 23.453125 21.933594 23.273438 21.933594 23.15625 21.960938 Z M 23.484375 22.648438 C 23.730469 22.800781 24.050781 23.140625 24.050781 23.25 C 24.050781 23.414062 23.859375 23.566406 23.691406 23.53125 C 23.515625 23.496094 23.144531 23.25 23.003906 23.070312 C 22.890625 22.921875 22.871094 22.699219 22.960938 22.609375 C 23.050781 22.519531 23.304688 22.539062 23.484375 22.648438 Z M 23.484375 22.648438 "/>
<path style=" stroke:none;fill-rule:nonzero;fill:rgb(0%,0%,0%);fill-opacity:1;" d="M 7.453125 24.125 C 7.09375 24.554688 6.789062 24.929688 6.773438 24.964844 C 6.765625 24.996094 6.839844 25.09375 6.945312 25.183594 L 7.128906 25.339844 L 7.488281 24.910156 C 7.683594 24.671875 7.886719 24.429688 7.929688 24.375 C 8.003906 24.273438 8.003906 24.28125 7.980469 24.398438 C 7.964844 24.46875 7.90625 24.824219 7.84375 25.195312 L 7.738281 25.863281 L 7.929688 26.03125 C 8.039062 26.121094 8.136719 26.195312 8.148438 26.195312 C 8.175781 26.195312 9.164062 25.046875 9.441406 24.695312 C 9.574219 24.53125 9.554688 24.480469 9.296875 24.296875 L 9.15625 24.199219 L 8.878906 24.535156 C 8.730469 24.726562 8.566406 24.929688 8.511719 24.996094 C 8.414062 25.113281 8.414062 25.113281 8.480469 24.746094 C 8.515625 24.539062 8.558594 24.226562 8.578125 24.046875 L 8.609375 23.710938 L 8.421875 23.53125 C 8.308594 23.433594 8.199219 23.351562 8.171875 23.351562 C 8.140625 23.351562 7.820312 23.699219 7.453125 24.125 Z M 7.453125 24.125 "/>
<path style=" stroke:none;fill-rule:nonzero;fill:rgb(0%,0%,0%);fill-opacity:1;" d="M 21.363281 23.710938 L 21.15625 23.925781 L 22.625 25.535156 L 22.859375 25.335938 C 22.996094 25.226562 23.101562 25.121094 23.101562 25.105469 C 23.101562 25.054688 21.683594 23.523438 21.628906 23.511719 C 21.601562 23.503906 21.480469 23.59375 21.363281 23.710938 Z M 21.363281 23.710938 "/>
<path style=" stroke:none;fill-rule:nonzero;fill:rgb(0%,0%,0%);fill-opacity:1;" d="M 20.273438 24.578125 C 19.976562 24.785156 19.695312 24.976562 19.65625 24.996094 C 19.605469 25.023438 19.613281 25.078125 19.726562 25.246094 C 19.800781 25.355469 19.875 25.449219 19.894531 25.449219 C 19.910156 25.449219 19.980469 25.40625 20.050781 25.351562 C 20.121094 25.296875 20.199219 25.25 20.230469 25.25 C 20.273438 25.25 20.734375 25.90625 21.160156 26.566406 C 21.183594 26.609375 21.699219 26.328125 21.699219 26.269531 C 21.699219 26.253906 21.496094 25.941406 21.246094 25.566406 L 20.785156 24.878906 L 20.898438 24.789062 C 20.964844 24.738281 21.050781 24.679688 21.089844 24.65625 C 21.148438 24.621094 21.140625 24.578125 21.023438 24.40625 C 20.949219 24.296875 20.875 24.199219 20.855469 24.203125 C 20.839844 24.203125 20.578125 24.375 20.273438 24.578125 Z M 20.273438 24.578125 "/>
<path style=" stroke:none;fill-rule:nonzero;fill:rgb(0%,0%,0%);fill-opacity:1;" d="M 9.765625 25.050781 C 9.675781 25.101562 9.570312 25.214844 9.523438 25.296875 C 9.355469 25.628906 9.480469 25.945312 9.925781 26.316406 C 10.148438 26.503906 10.214844 26.679688 10.074219 26.730469 C 9.949219 26.78125 9.679688 26.585938 9.621094 26.398438 C 9.566406 26.234375 9.523438 26.210938 9.113281 26.078125 C 9.003906 26.046875 9 26.058594 9 26.273438 C 9 26.671875 9.179688 26.898438 9.648438 27.121094 C 10.269531 27.410156 10.851562 27.15625 10.851562 26.601562 C 10.851562 26.371094 10.78125 26.261719 10.410156 25.910156 C 10.09375 25.613281 10.085938 25.59375 10.164062 25.511719 C 10.246094 25.433594 10.265625 25.433594 10.390625 25.5 C 10.464844 25.539062 10.558594 25.644531 10.601562 25.734375 C 10.664062 25.871094 10.710938 25.898438 10.914062 25.925781 C 11.050781 25.945312 11.171875 25.949219 11.183594 25.929688 C 11.25 25.863281 11.136719 25.535156 10.984375 25.363281 C 10.664062 25 10.089844 24.851562 9.765625 25.050781 Z M 9.765625 25.050781 "/>
<path style=" stroke:none;fill-rule:nonzero;fill:rgb(0%,0%,0%);fill-opacity:1;" d="M 18.679688 25.425781 C 18.390625 25.53125 18.238281 25.65625 18.113281 25.898438 C 17.734375 26.644531 18.464844 27.785156 19.214844 27.621094 C 19.695312 27.519531 20.003906 27.199219 20.039062 26.78125 C 20.050781 26.628906 20.039062 26.5 20.015625 26.484375 C 19.988281 26.464844 19.851562 26.488281 19.710938 26.535156 C 19.453125 26.613281 19.449219 26.625 19.449219 26.808594 C 19.449219 26.964844 19.425781 27.015625 19.328125 27.054688 C 19.105469 27.160156 18.96875 27.074219 18.804688 26.738281 C 18.605469 26.34375 18.59375 26.039062 18.769531 25.925781 C 18.910156 25.835938 19.046875 25.875 19.164062 26.050781 C 19.234375 26.148438 19.234375 26.148438 19.488281 26.046875 C 19.636719 25.984375 19.75 25.910156 19.75 25.875 C 19.75 25.761719 19.535156 25.539062 19.328125 25.445312 C 19.085938 25.335938 18.945312 25.328125 18.679688 25.425781 Z M 18.679688 25.425781 "/>
<path style=" stroke:none;fill-rule:nonzero;fill:rgb(0%,0%,0%);fill-opacity:1;" d="M 11.625 25.671875 C 11.613281 25.699219 11.585938 25.800781 11.554688 25.894531 C 11.496094 26.074219 11.515625 26.148438 11.625 26.148438 C 11.664062 26.148438 11.75 26.171875 11.816406 26.195312 L 11.941406 26.246094 L 11.71875 27.011719 C 11.601562 27.429688 11.5 27.796875 11.5 27.828125 C 11.5 27.878906 12.03125 28.039062 12.070312 27.996094 C 12.078125 27.984375 12.179688 27.648438 12.296875 27.25 C 12.410156 26.851562 12.515625 26.5 12.523438 26.464844 C 12.539062 26.425781 12.601562 26.425781 12.765625 26.476562 L 12.988281 26.539062 L 13.050781 26.316406 C 13.078125 26.191406 13.085938 26.070312 13.066406 26.050781 C 12.976562 25.964844 11.640625 25.613281 11.625 25.671875 Z M 11.625 25.671875 "/>
<path style=" stroke:none;fill-rule:nonzero;fill:rgb(0%,0%,0%);fill-opacity:1;" d="M 17.035156 25.984375 C 16.933594 26 16.898438 26.03125 16.921875 26.089844 C 16.933594 26.136719 16.988281 26.484375 17.050781 26.859375 C 17.164062 27.609375 17.148438 27.714844 16.921875 27.769531 C 16.605469 27.851562 16.558594 27.765625 16.398438 26.753906 C 16.34375 26.414062 16.296875 26.128906 16.289062 26.125 C 16.25 26.089844 15.648438 26.21875 15.648438 26.265625 C 15.648438 26.425781 15.914062 27.84375 15.964844 27.945312 C 16.085938 28.191406 16.273438 28.273438 16.691406 28.273438 C 17.011719 28.273438 17.113281 28.253906 17.289062 28.148438 C 17.683594 27.925781 17.71875 27.714844 17.535156 26.625 C 17.410156 25.910156 17.421875 25.925781 17.035156 25.984375 Z M 17.035156 25.984375 "/>
<path style=" stroke:none;fill-rule:nonzero;fill:rgb(0%,0%,0%);fill-opacity:1;" d="M 13.296875 27.183594 L 13.226562 28.273438 L 13.351562 28.304688 C 13.421875 28.324219 13.570312 28.339844 13.691406 28.34375 L 13.898438 28.351562 L 13.898438 27.984375 C 13.898438 27.589844 13.941406 27.480469 14.074219 27.511719 C 14.140625 27.519531 14.203125 27.644531 14.296875 27.949219 L 14.429688 28.375 L 14.769531 28.414062 C 14.960938 28.433594 15.125 28.445312 15.128906 28.433594 C 15.140625 28.425781 15.078125 28.210938 14.996094 27.960938 L 14.839844 27.503906 L 15.046875 27.308594 C 15.230469 27.136719 15.25 27.09375 15.25 26.863281 C 15.25 26.394531 15.011719 26.230469 14.25 26.179688 C 13.988281 26.160156 13.683594 26.136719 13.570312 26.121094 L 13.363281 26.09375 Z M 13.296875 27.183594 "/>
</g>
</svg>
